<svg fill="#000" height="800" width="800" version="1.1" id="Layer_1" xmlns="http://www.w3.org/2000/svg" viewBox="0 0 511.915 511.915" xml:space="preserve"><path d="M426.624 469.269c0-.043-.021-.064-.021-.107 0-.597-.235-1.131-.32-1.707-.107-.576-.043-1.152-.235-1.707l-.192-.555c-.043-.128-.085-.235-.128-.363l-.448-1.301c-.256-.683-.363-1.387-.704-2.048L266.069 7.061c-.085-.235-.256-.384-.341-.597-.256-.64-.661-1.173-1.045-1.749-.384-.576-.747-1.173-1.237-1.664-.448-.448-1.003-.789-1.536-1.152-.619-.427-1.195-.832-1.877-1.109-.192-.085-.341-.256-.555-.32-.469-.171-.96-.107-1.451-.192-.662-.129-1.28-.278-1.963-.278-.832 0-1.621.149-2.411.341-.384.085-.768.021-1.152.171-.171.064-.277.192-.448.256-.789.32-1.472.789-2.176 1.28-.448.32-.917.597-1.301.981-.533.533-.939 1.152-1.344 1.813-.363.533-.725 1.045-.96 1.621-.085.213-.277.363-.341.597L87.339 461.504c-.341.64-.448 1.323-.683 1.984l-.789 2.24c-.235.661-.171 1.323-.277 2.005-.064.512-.299.96-.299 1.515 0 .107.064.213.064.32.021.661.213 1.28.363 1.92.171.896.341 1.771.725 2.603 11.669 36.629 152.768 37.824 169.515 37.824 16.768 0 158.101-1.195 169.557-37.909.064-.128.107-.277.171-.427.192-.427.213-.896.363-1.344.256-.896.512-1.771.555-2.709 0-.043.021-.085.021-.128-.022-.065-.001-.086-.001-.129zM255.957 42.944l139.435 399.701c-45.739-15.381-126.976-16.064-139.413-16.064-12.437 0-93.696.683-139.435 16.064L255.957 42.944zm0 447.616c-91.285.021-141.269-14.272-148.437-20.715 8.384-8 58.176-21.952 148.437-21.952 91.285 0 141.269 14.272 148.437 20.715-8.383 8-58.175 21.952-148.437 21.952z"/></svg>